<mxfile host="app.diagrams.net" agent="Mozilla/5.0 (Windows NT 10.0; Win64; x64) AppleWebKit/537.36 (KHTML, like Gecko) Chrome/131.0.0.0 Safari/537.36" version="25.0.3">
  <diagram name="PÃ¡gina-1" id="4oQC25rM-l1QRuHKkP84">
    <mxGraphModel dx="5024" dy="2203" grid="1" gridSize="10" guides="1" tooltips="1" connect="1" arrows="1" fold="1" page="1" pageScale="1" pageWidth="827" pageHeight="1169" math="0" shadow="0">
      <root>
        <mxCell id="0" />
        <mxCell id="1" parent="0" />
        <mxCell id="TtnDu9fIb5i5GHP8JrFv-12" style="rounded=0;orthogonalLoop=1;jettySize=auto;html=1;exitX=0.5;exitY=1;exitDx=0;exitDy=0;entryX=0;entryY=0;entryDx=0;entryDy=0;endArrow=none;endFill=0;fillColor=#dae8fc;strokeColor=#6c8ebf;" edge="1" parent="1" source="TtnDu9fIb5i5GHP8JrFv-3" target="TtnDu9fIb5i5GHP8JrFv-4">
          <mxGeometry relative="1" as="geometry" />
        </mxCell>
        <mxCell id="TtnDu9fIb5i5GHP8JrFv-3" value="&lt;u&gt;userID&lt;/u&gt;" style="ellipse;whiteSpace=wrap;html=1;fillColor=#dae8fc;strokeColor=#6c8ebf;" vertex="1" parent="1">
          <mxGeometry x="-570" y="180" width="120" height="80" as="geometry" />
        </mxCell>
        <mxCell id="TtnDu9fIb5i5GHP8JrFv-46" style="edgeStyle=orthogonalEdgeStyle;rounded=0;orthogonalLoop=1;jettySize=auto;html=1;exitX=1;exitY=0.5;exitDx=0;exitDy=0;entryX=0;entryY=0.5;entryDx=0;entryDy=0;endArrow=none;endFill=0;fillColor=#dae8fc;strokeColor=#6c8ebf;" edge="1" parent="1" source="TtnDu9fIb5i5GHP8JrFv-4" target="TtnDu9fIb5i5GHP8JrFv-45">
          <mxGeometry relative="1" as="geometry" />
        </mxCell>
        <mxCell id="TtnDu9fIb5i5GHP8JrFv-90" style="edgeStyle=orthogonalEdgeStyle;rounded=0;orthogonalLoop=1;jettySize=auto;html=1;exitX=0.5;exitY=1;exitDx=0;exitDy=0;entryX=0;entryY=0.5;entryDx=0;entryDy=0;endArrow=none;endFill=0;fillColor=#dae8fc;strokeColor=#6c8ebf;" edge="1" parent="1" source="TtnDu9fIb5i5GHP8JrFv-4" target="TtnDu9fIb5i5GHP8JrFv-87">
          <mxGeometry relative="1" as="geometry" />
        </mxCell>
        <mxCell id="TtnDu9fIb5i5GHP8JrFv-4" value="BEACHGOER" style="rounded=0;whiteSpace=wrap;html=1;fillColor=#dae8fc;strokeColor=#6c8ebf;" vertex="1" parent="1">
          <mxGeometry x="-150" y="360" width="120" height="60" as="geometry" />
        </mxCell>
        <mxCell id="TtnDu9fIb5i5GHP8JrFv-14" style="rounded=0;orthogonalLoop=1;jettySize=auto;html=1;exitX=0.5;exitY=1;exitDx=0;exitDy=0;entryX=0.25;entryY=0;entryDx=0;entryDy=0;endArrow=none;endFill=0;fillColor=#dae8fc;strokeColor=#6c8ebf;" edge="1" parent="1" source="TtnDu9fIb5i5GHP8JrFv-6" target="TtnDu9fIb5i5GHP8JrFv-4">
          <mxGeometry relative="1" as="geometry" />
        </mxCell>
        <mxCell id="TtnDu9fIb5i5GHP8JrFv-6" value="username" style="ellipse;whiteSpace=wrap;html=1;fillColor=#dae8fc;strokeColor=#6c8ebf;" vertex="1" parent="1">
          <mxGeometry x="-430" y="180" width="120" height="80" as="geometry" />
        </mxCell>
        <mxCell id="TtnDu9fIb5i5GHP8JrFv-7" value="email" style="ellipse;whiteSpace=wrap;html=1;fillColor=#dae8fc;strokeColor=#6c8ebf;" vertex="1" parent="1">
          <mxGeometry x="-286" y="180" width="120" height="80" as="geometry" />
        </mxCell>
        <mxCell id="TtnDu9fIb5i5GHP8JrFv-16" style="rounded=0;orthogonalLoop=1;jettySize=auto;html=1;exitX=0.5;exitY=1;exitDx=0;exitDy=0;entryX=0.5;entryY=0;entryDx=0;entryDy=0;endArrow=none;endFill=0;fillColor=#dae8fc;strokeColor=#6c8ebf;" edge="1" parent="1" source="TtnDu9fIb5i5GHP8JrFv-8" target="TtnDu9fIb5i5GHP8JrFv-4">
          <mxGeometry relative="1" as="geometry" />
        </mxCell>
        <mxCell id="TtnDu9fIb5i5GHP8JrFv-8" value="contact" style="ellipse;whiteSpace=wrap;html=1;fillColor=#dae8fc;strokeColor=#6c8ebf;" vertex="1" parent="1">
          <mxGeometry x="-150" y="180" width="120" height="80" as="geometry" />
        </mxCell>
        <mxCell id="TtnDu9fIb5i5GHP8JrFv-9" value="password" style="ellipse;whiteSpace=wrap;html=1;fillColor=#dae8fc;strokeColor=#6c8ebf;" vertex="1" parent="1">
          <mxGeometry x="-10" y="180" width="120" height="80" as="geometry" />
        </mxCell>
        <mxCell id="TtnDu9fIb5i5GHP8JrFv-10" value="typeID" style="ellipse;whiteSpace=wrap;html=1;fillColor=#dae8fc;strokeColor=#6c8ebf;" vertex="1" parent="1">
          <mxGeometry x="280" y="170" width="120" height="80" as="geometry" />
        </mxCell>
        <mxCell id="TtnDu9fIb5i5GHP8JrFv-15" style="rounded=0;orthogonalLoop=1;jettySize=auto;html=1;exitX=0.5;exitY=1;exitDx=0;exitDy=0;entryX=0.376;entryY=0.005;entryDx=0;entryDy=0;entryPerimeter=0;endArrow=none;endFill=0;fillColor=#dae8fc;strokeColor=#6c8ebf;" edge="1" parent="1" source="TtnDu9fIb5i5GHP8JrFv-7" target="TtnDu9fIb5i5GHP8JrFv-4">
          <mxGeometry relative="1" as="geometry" />
        </mxCell>
        <mxCell id="TtnDu9fIb5i5GHP8JrFv-17" style="rounded=0;orthogonalLoop=1;jettySize=auto;html=1;exitX=0.5;exitY=1;exitDx=0;exitDy=0;entryX=0.649;entryY=-0.016;entryDx=0;entryDy=0;entryPerimeter=0;endArrow=none;endFill=0;fillColor=#dae8fc;strokeColor=#6c8ebf;" edge="1" parent="1" source="TtnDu9fIb5i5GHP8JrFv-9" target="TtnDu9fIb5i5GHP8JrFv-4">
          <mxGeometry relative="1" as="geometry" />
        </mxCell>
        <mxCell id="TtnDu9fIb5i5GHP8JrFv-35" style="edgeStyle=orthogonalEdgeStyle;rounded=0;orthogonalLoop=1;jettySize=auto;html=1;exitX=1;exitY=0.5;exitDx=0;exitDy=0;entryX=0;entryY=0.5;entryDx=0;entryDy=0;endArrow=none;endFill=0;fillColor=#dae8fc;strokeColor=#6c8ebf;" edge="1" parent="1" source="TtnDu9fIb5i5GHP8JrFv-28" target="TtnDu9fIb5i5GHP8JrFv-36">
          <mxGeometry relative="1" as="geometry">
            <mxPoint x="-225.00000000000045" y="400" as="targetPoint" />
          </mxGeometry>
        </mxCell>
        <mxCell id="TtnDu9fIb5i5GHP8JrFv-28" value="PESSOA" style="rounded=0;whiteSpace=wrap;html=1;fillColor=#dae8fc;strokeColor=#6c8ebf;" vertex="1" parent="1">
          <mxGeometry x="-540" y="360" width="120" height="60" as="geometry" />
        </mxCell>
        <mxCell id="TtnDu9fIb5i5GHP8JrFv-32" style="rounded=0;orthogonalLoop=1;jettySize=auto;html=1;exitX=1;exitY=0.5;exitDx=0;exitDy=0;entryX=0;entryY=0.25;entryDx=0;entryDy=0;endArrow=none;endFill=0;fillColor=#dae8fc;strokeColor=#6c8ebf;" edge="1" parent="1" source="TtnDu9fIb5i5GHP8JrFv-29" target="TtnDu9fIb5i5GHP8JrFv-28">
          <mxGeometry relative="1" as="geometry" />
        </mxCell>
        <mxCell id="TtnDu9fIb5i5GHP8JrFv-29" value="name" style="ellipse;whiteSpace=wrap;html=1;fillColor=#dae8fc;strokeColor=#6c8ebf;" vertex="1" parent="1">
          <mxGeometry x="-800" y="230" width="120" height="80" as="geometry" />
        </mxCell>
        <mxCell id="TtnDu9fIb5i5GHP8JrFv-33" style="rounded=0;orthogonalLoop=1;jettySize=auto;html=1;exitX=1;exitY=0.5;exitDx=0;exitDy=0;entryX=0;entryY=0.5;entryDx=0;entryDy=0;endArrow=none;endFill=0;fillColor=#dae8fc;strokeColor=#6c8ebf;" edge="1" parent="1" source="TtnDu9fIb5i5GHP8JrFv-30" target="TtnDu9fIb5i5GHP8JrFv-28">
          <mxGeometry relative="1" as="geometry" />
        </mxCell>
        <mxCell id="TtnDu9fIb5i5GHP8JrFv-30" value="morada" style="ellipse;whiteSpace=wrap;html=1;fillColor=#dae8fc;strokeColor=#6c8ebf;" vertex="1" parent="1">
          <mxGeometry x="-800" y="320" width="120" height="80" as="geometry" />
        </mxCell>
        <mxCell id="TtnDu9fIb5i5GHP8JrFv-34" style="rounded=0;orthogonalLoop=1;jettySize=auto;html=1;exitX=1;exitY=0.5;exitDx=0;exitDy=0;entryX=0;entryY=0.75;entryDx=0;entryDy=0;endArrow=none;endFill=0;fillColor=#dae8fc;strokeColor=#6c8ebf;" edge="1" parent="1" source="TtnDu9fIb5i5GHP8JrFv-31" target="TtnDu9fIb5i5GHP8JrFv-28">
          <mxGeometry relative="1" as="geometry" />
        </mxCell>
        <mxCell id="TtnDu9fIb5i5GHP8JrFv-31" value="dataNascimento" style="ellipse;whiteSpace=wrap;html=1;fillColor=#dae8fc;strokeColor=#6c8ebf;" vertex="1" parent="1">
          <mxGeometry x="-800" y="410" width="120" height="80" as="geometry" />
        </mxCell>
        <mxCell id="TtnDu9fIb5i5GHP8JrFv-38" style="edgeStyle=orthogonalEdgeStyle;rounded=0;orthogonalLoop=1;jettySize=auto;html=1;exitX=1;exitY=0.5;exitDx=0;exitDy=0;entryX=0;entryY=0.5;entryDx=0;entryDy=0;endArrow=none;endFill=0;fillColor=#dae8fc;strokeColor=#6c8ebf;" edge="1" parent="1" source="TtnDu9fIb5i5GHP8JrFv-36" target="TtnDu9fIb5i5GHP8JrFv-4">
          <mxGeometry relative="1" as="geometry" />
        </mxCell>
        <mxCell id="TtnDu9fIb5i5GHP8JrFv-55" style="edgeStyle=orthogonalEdgeStyle;rounded=0;orthogonalLoop=1;jettySize=auto;html=1;exitX=0.5;exitY=1;exitDx=0;exitDy=0;entryX=0;entryY=0.5;entryDx=0;entryDy=0;endArrow=none;endFill=0;fillColor=#dae8fc;strokeColor=#6c8ebf;" edge="1" parent="1" source="TtnDu9fIb5i5GHP8JrFv-36" target="TtnDu9fIb5i5GHP8JrFv-54">
          <mxGeometry relative="1" as="geometry">
            <Array as="points">
              <mxPoint x="-256" y="650" />
            </Array>
          </mxGeometry>
        </mxCell>
        <mxCell id="TtnDu9fIb5i5GHP8JrFv-36" value="IS-A" style="triangle;whiteSpace=wrap;html=1;fillColor=#dae8fc;strokeColor=#6c8ebf;" vertex="1" parent="1">
          <mxGeometry x="-286" y="350" width="60" height="80" as="geometry" />
        </mxCell>
        <mxCell id="TtnDu9fIb5i5GHP8JrFv-47" style="edgeStyle=orthogonalEdgeStyle;rounded=0;orthogonalLoop=1;jettySize=auto;html=1;exitX=0;exitY=0.5;exitDx=0;exitDy=0;entryX=1;entryY=0.5;entryDx=0;entryDy=0;endArrow=none;endFill=0;fillColor=#dae8fc;strokeColor=#6c8ebf;" edge="1" parent="1" source="TtnDu9fIb5i5GHP8JrFv-39" target="TtnDu9fIb5i5GHP8JrFv-45">
          <mxGeometry relative="1" as="geometry" />
        </mxCell>
        <mxCell id="TtnDu9fIb5i5GHP8JrFv-39" value="ACCOUNT TYPE" style="rounded=0;whiteSpace=wrap;html=1;fillColor=#dae8fc;strokeColor=#6c8ebf;" vertex="1" parent="1">
          <mxGeometry x="351" y="360" width="120" height="60" as="geometry" />
        </mxCell>
        <mxCell id="TtnDu9fIb5i5GHP8JrFv-41" value="name" style="ellipse;whiteSpace=wrap;html=1;fillColor=#dae8fc;strokeColor=#6c8ebf;" vertex="1" parent="1">
          <mxGeometry x="420" y="170" width="120" height="80" as="geometry" />
        </mxCell>
        <mxCell id="TtnDu9fIb5i5GHP8JrFv-42" style="rounded=0;orthogonalLoop=1;jettySize=auto;html=1;exitX=0.5;exitY=1;exitDx=0;exitDy=0;entryX=0.75;entryY=0;entryDx=0;entryDy=0;endArrow=none;endFill=0;fillColor=#dae8fc;strokeColor=#6c8ebf;" edge="1" parent="1" source="TtnDu9fIb5i5GHP8JrFv-41" target="TtnDu9fIb5i5GHP8JrFv-39">
          <mxGeometry relative="1" as="geometry">
            <mxPoint x="543" y="251" as="sourcePoint" />
            <mxPoint x="361" y="350" as="targetPoint" />
          </mxGeometry>
        </mxCell>
        <mxCell id="TtnDu9fIb5i5GHP8JrFv-44" style="rounded=0;orthogonalLoop=1;jettySize=auto;html=1;exitX=0.5;exitY=1;exitDx=0;exitDy=0;entryX=0.25;entryY=0;entryDx=0;entryDy=0;endArrow=none;endFill=0;fillColor=#dae8fc;strokeColor=#6c8ebf;" edge="1" parent="1" source="TtnDu9fIb5i5GHP8JrFv-10" target="TtnDu9fIb5i5GHP8JrFv-39">
          <mxGeometry relative="1" as="geometry">
            <mxPoint x="561" y="270" as="sourcePoint" />
            <mxPoint x="461" y="380" as="targetPoint" />
          </mxGeometry>
        </mxCell>
        <mxCell id="TtnDu9fIb5i5GHP8JrFv-45" value="has" style="rhombus;whiteSpace=wrap;html=1;fillColor=#dae8fc;strokeColor=#6c8ebf;" vertex="1" parent="1">
          <mxGeometry x="130" y="350" width="80" height="80" as="geometry" />
        </mxCell>
        <mxCell id="TtnDu9fIb5i5GHP8JrFv-78" style="edgeStyle=orthogonalEdgeStyle;rounded=0;orthogonalLoop=1;jettySize=auto;html=1;exitX=1;exitY=0.5;exitDx=0;exitDy=0;entryX=0;entryY=0.5;entryDx=0;entryDy=0;endArrow=none;endFill=0;fillColor=#dae8fc;strokeColor=#6c8ebf;" edge="1" parent="1" source="TtnDu9fIb5i5GHP8JrFv-54" target="TtnDu9fIb5i5GHP8JrFv-77">
          <mxGeometry relative="1" as="geometry" />
        </mxCell>
        <mxCell id="TtnDu9fIb5i5GHP8JrFv-92" style="edgeStyle=orthogonalEdgeStyle;rounded=0;orthogonalLoop=1;jettySize=auto;html=1;exitX=0.5;exitY=0;exitDx=0;exitDy=0;entryX=0;entryY=0.5;entryDx=0;entryDy=0;endArrow=none;endFill=0;fillColor=#dae8fc;strokeColor=#6c8ebf;" edge="1" parent="1" source="TtnDu9fIb5i5GHP8JrFv-54" target="TtnDu9fIb5i5GHP8JrFv-91">
          <mxGeometry relative="1" as="geometry" />
        </mxCell>
        <mxCell id="TtnDu9fIb5i5GHP8JrFv-54" value="LIFEGUARD" style="rounded=0;whiteSpace=wrap;html=1;fillColor=#dae8fc;strokeColor=#6c8ebf;" vertex="1" parent="1">
          <mxGeometry x="-150" y="620" width="120" height="60" as="geometry" />
        </mxCell>
        <mxCell id="TtnDu9fIb5i5GHP8JrFv-56" value="&lt;u&gt;userID&lt;/u&gt;" style="ellipse;whiteSpace=wrap;html=1;fillColor=#dae8fc;strokeColor=#6c8ebf;" vertex="1" parent="1">
          <mxGeometry x="-470" y="790" width="120" height="80" as="geometry" />
        </mxCell>
        <mxCell id="TtnDu9fIb5i5GHP8JrFv-57" value="username" style="ellipse;whiteSpace=wrap;html=1;fillColor=#dae8fc;strokeColor=#6c8ebf;" vertex="1" parent="1">
          <mxGeometry x="-330" y="790" width="120" height="80" as="geometry" />
        </mxCell>
        <mxCell id="TtnDu9fIb5i5GHP8JrFv-58" value="email" style="ellipse;whiteSpace=wrap;html=1;fillColor=#dae8fc;strokeColor=#6c8ebf;" vertex="1" parent="1">
          <mxGeometry x="-186" y="790" width="120" height="80" as="geometry" />
        </mxCell>
        <mxCell id="TtnDu9fIb5i5GHP8JrFv-59" value="contact" style="ellipse;whiteSpace=wrap;html=1;fillColor=#dae8fc;strokeColor=#6c8ebf;" vertex="1" parent="1">
          <mxGeometry x="-50" y="790" width="120" height="80" as="geometry" />
        </mxCell>
        <mxCell id="TtnDu9fIb5i5GHP8JrFv-60" value="password" style="ellipse;whiteSpace=wrap;html=1;fillColor=#dae8fc;strokeColor=#6c8ebf;" vertex="1" parent="1">
          <mxGeometry x="90" y="790" width="120" height="80" as="geometry" />
        </mxCell>
        <mxCell id="TtnDu9fIb5i5GHP8JrFv-62" style="rounded=0;orthogonalLoop=1;jettySize=auto;html=1;entryX=0;entryY=1;entryDx=0;entryDy=0;endArrow=none;endFill=0;exitX=0.5;exitY=0;exitDx=0;exitDy=0;fillColor=#dae8fc;strokeColor=#6c8ebf;" edge="1" parent="1" source="TtnDu9fIb5i5GHP8JrFv-56" target="TtnDu9fIb5i5GHP8JrFv-54">
          <mxGeometry relative="1" as="geometry">
            <mxPoint x="-420" y="760" as="sourcePoint" />
            <mxPoint x="-140" y="510" as="targetPoint" />
          </mxGeometry>
        </mxCell>
        <mxCell id="TtnDu9fIb5i5GHP8JrFv-63" style="rounded=0;orthogonalLoop=1;jettySize=auto;html=1;exitX=0.5;exitY=0;exitDx=0;exitDy=0;entryX=0.166;entryY=0.992;entryDx=0;entryDy=0;endArrow=none;endFill=0;entryPerimeter=0;fillColor=#dae8fc;strokeColor=#6c8ebf;" edge="1" parent="1" source="TtnDu9fIb5i5GHP8JrFv-57" target="TtnDu9fIb5i5GHP8JrFv-54">
          <mxGeometry relative="1" as="geometry">
            <mxPoint x="-440" y="410" as="sourcePoint" />
            <mxPoint x="-140" y="510" as="targetPoint" />
          </mxGeometry>
        </mxCell>
        <mxCell id="TtnDu9fIb5i5GHP8JrFv-64" style="rounded=0;orthogonalLoop=1;jettySize=auto;html=1;exitX=0.5;exitY=0;exitDx=0;exitDy=0;entryX=0.352;entryY=0.992;entryDx=0;entryDy=0;endArrow=none;endFill=0;entryPerimeter=0;fillColor=#dae8fc;strokeColor=#6c8ebf;" edge="1" parent="1" source="TtnDu9fIb5i5GHP8JrFv-58" target="TtnDu9fIb5i5GHP8JrFv-54">
          <mxGeometry relative="1" as="geometry">
            <mxPoint x="-430" y="420" as="sourcePoint" />
            <mxPoint x="-130" y="520" as="targetPoint" />
          </mxGeometry>
        </mxCell>
        <mxCell id="TtnDu9fIb5i5GHP8JrFv-65" style="rounded=0;orthogonalLoop=1;jettySize=auto;html=1;exitX=0.5;exitY=0;exitDx=0;exitDy=0;entryX=0.637;entryY=0.995;entryDx=0;entryDy=0;endArrow=none;endFill=0;entryPerimeter=0;fillColor=#dae8fc;strokeColor=#6c8ebf;" edge="1" parent="1" source="TtnDu9fIb5i5GHP8JrFv-59" target="TtnDu9fIb5i5GHP8JrFv-54">
          <mxGeometry relative="1" as="geometry">
            <mxPoint x="-116" y="800" as="sourcePoint" />
            <mxPoint x="-98" y="690" as="targetPoint" />
          </mxGeometry>
        </mxCell>
        <mxCell id="TtnDu9fIb5i5GHP8JrFv-66" style="rounded=0;orthogonalLoop=1;jettySize=auto;html=1;exitX=0.5;exitY=0;exitDx=0;exitDy=0;entryX=1;entryY=1;entryDx=0;entryDy=0;endArrow=none;endFill=0;fillColor=#dae8fc;strokeColor=#6c8ebf;" edge="1" parent="1" source="TtnDu9fIb5i5GHP8JrFv-60" target="TtnDu9fIb5i5GHP8JrFv-54">
          <mxGeometry relative="1" as="geometry">
            <mxPoint x="-106" y="810" as="sourcePoint" />
            <mxPoint x="-88" y="700" as="targetPoint" />
          </mxGeometry>
        </mxCell>
        <mxCell id="TtnDu9fIb5i5GHP8JrFv-68" value="ref_typeID" style="ellipse;whiteSpace=wrap;html=1;fillColor=#dae8fc;strokeColor=#6c8ebf;" vertex="1" parent="1">
          <mxGeometry x="130" y="180" width="120" height="80" as="geometry" />
        </mxCell>
        <mxCell id="TtnDu9fIb5i5GHP8JrFv-69" style="rounded=0;orthogonalLoop=1;jettySize=auto;html=1;exitX=0.5;exitY=1;exitDx=0;exitDy=0;entryX=1;entryY=0;entryDx=0;entryDy=0;endArrow=none;endFill=0;fillColor=#dae8fc;strokeColor=#6c8ebf;" edge="1" parent="1" source="TtnDu9fIb5i5GHP8JrFv-68" target="TtnDu9fIb5i5GHP8JrFv-4">
          <mxGeometry relative="1" as="geometry">
            <mxPoint x="60" y="270" as="sourcePoint" />
            <mxPoint x="-62" y="369" as="targetPoint" />
          </mxGeometry>
        </mxCell>
        <mxCell id="TtnDu9fIb5i5GHP8JrFv-70" value="ref_roleID" style="ellipse;whiteSpace=wrap;html=1;fillColor=#dae8fc;strokeColor=#6c8ebf;" vertex="1" parent="1">
          <mxGeometry x="220" y="790" width="120" height="80" as="geometry" />
        </mxCell>
        <mxCell id="TtnDu9fIb5i5GHP8JrFv-72" style="rounded=0;orthogonalLoop=1;jettySize=auto;html=1;exitX=0.5;exitY=0;exitDx=0;exitDy=0;entryX=1;entryY=0.75;entryDx=0;entryDy=0;endArrow=none;endFill=0;fillColor=#dae8fc;strokeColor=#6c8ebf;" edge="1" parent="1" source="TtnDu9fIb5i5GHP8JrFv-70" target="TtnDu9fIb5i5GHP8JrFv-54">
          <mxGeometry relative="1" as="geometry">
            <mxPoint x="160" y="800" as="sourcePoint" />
            <mxPoint x="-20" y="690" as="targetPoint" />
          </mxGeometry>
        </mxCell>
        <mxCell id="TtnDu9fIb5i5GHP8JrFv-75" value="&lt;font style=&quot;font-size: 16px;&quot;&gt;1&lt;/font&gt;" style="text;html=1;align=center;verticalAlign=middle;resizable=0;points=[];autosize=1;strokeColor=#6c8ebf;fillColor=#dae8fc;" vertex="1" parent="1">
          <mxGeometry x="-30" y="360" width="30" height="30" as="geometry" />
        </mxCell>
        <mxCell id="TtnDu9fIb5i5GHP8JrFv-76" value="&lt;span style=&quot;font-size: 16px;&quot;&gt;1&lt;/span&gt;" style="text;html=1;align=center;verticalAlign=middle;resizable=0;points=[];autosize=1;strokeColor=#6c8ebf;fillColor=#dae8fc;" vertex="1" parent="1">
          <mxGeometry x="325" y="360" width="30" height="30" as="geometry" />
        </mxCell>
        <mxCell id="TtnDu9fIb5i5GHP8JrFv-84" style="edgeStyle=orthogonalEdgeStyle;rounded=0;orthogonalLoop=1;jettySize=auto;html=1;exitX=1;exitY=0.5;exitDx=0;exitDy=0;entryX=0;entryY=0.5;entryDx=0;entryDy=0;endArrow=none;endFill=0;fillColor=#dae8fc;strokeColor=#6c8ebf;" edge="1" parent="1" source="TtnDu9fIb5i5GHP8JrFv-77" target="TtnDu9fIb5i5GHP8JrFv-79">
          <mxGeometry relative="1" as="geometry" />
        </mxCell>
        <mxCell id="TtnDu9fIb5i5GHP8JrFv-77" value="has" style="rhombus;whiteSpace=wrap;html=1;fillColor=#dae8fc;strokeColor=#6c8ebf;" vertex="1" parent="1">
          <mxGeometry x="130" y="610" width="80" height="80" as="geometry" />
        </mxCell>
        <mxCell id="TtnDu9fIb5i5GHP8JrFv-79" value="ROLE TYPE" style="rounded=0;whiteSpace=wrap;html=1;fillColor=#dae8fc;strokeColor=#6c8ebf;" vertex="1" parent="1">
          <mxGeometry x="351" y="620" width="120" height="60" as="geometry" />
        </mxCell>
        <mxCell id="TtnDu9fIb5i5GHP8JrFv-80" value="roleID" style="ellipse;whiteSpace=wrap;html=1;fillColor=#dae8fc;strokeColor=#6c8ebf;" vertex="1" parent="1">
          <mxGeometry x="360" y="730" width="120" height="80" as="geometry" />
        </mxCell>
        <mxCell id="TtnDu9fIb5i5GHP8JrFv-81" value="name" style="ellipse;whiteSpace=wrap;html=1;fillColor=#dae8fc;strokeColor=#6c8ebf;" vertex="1" parent="1">
          <mxGeometry x="500" y="730" width="120" height="80" as="geometry" />
        </mxCell>
        <mxCell id="TtnDu9fIb5i5GHP8JrFv-82" style="rounded=0;orthogonalLoop=1;jettySize=auto;html=1;exitX=0;exitY=0;exitDx=0;exitDy=0;entryX=0.75;entryY=1;entryDx=0;entryDy=0;endArrow=none;endFill=0;fillColor=#dae8fc;strokeColor=#6c8ebf;" edge="1" parent="1" source="TtnDu9fIb5i5GHP8JrFv-81" target="TtnDu9fIb5i5GHP8JrFv-79">
          <mxGeometry relative="1" as="geometry">
            <mxPoint x="623" y="811" as="sourcePoint" />
            <mxPoint x="521" y="920" as="targetPoint" />
          </mxGeometry>
        </mxCell>
        <mxCell id="TtnDu9fIb5i5GHP8JrFv-83" style="rounded=0;orthogonalLoop=1;jettySize=auto;html=1;exitX=0.287;exitY=0.041;exitDx=0;exitDy=0;entryX=0.25;entryY=1;entryDx=0;entryDy=0;endArrow=none;endFill=0;exitPerimeter=0;fillColor=#dae8fc;strokeColor=#6c8ebf;" edge="1" parent="1" source="TtnDu9fIb5i5GHP8JrFv-80" target="TtnDu9fIb5i5GHP8JrFv-79">
          <mxGeometry relative="1" as="geometry">
            <mxPoint x="641" y="830" as="sourcePoint" />
            <mxPoint x="461" y="920" as="targetPoint" />
          </mxGeometry>
        </mxCell>
        <mxCell id="TtnDu9fIb5i5GHP8JrFv-85" value="&lt;font style=&quot;font-size: 16px;&quot;&gt;1&lt;/font&gt;" style="text;html=1;align=center;verticalAlign=middle;resizable=0;points=[];autosize=1;strokeColor=#6c8ebf;fillColor=#dae8fc;" vertex="1" parent="1">
          <mxGeometry x="-30" y="620" width="30" height="30" as="geometry" />
        </mxCell>
        <mxCell id="TtnDu9fIb5i5GHP8JrFv-86" value="&lt;span style=&quot;font-size: 16px;&quot;&gt;N&lt;/span&gt;" style="text;html=1;align=center;verticalAlign=middle;resizable=0;points=[];autosize=1;strokeColor=#6c8ebf;fillColor=#dae8fc;" vertex="1" parent="1">
          <mxGeometry x="316" y="620" width="40" height="30" as="geometry" />
        </mxCell>
        <mxCell id="TtnDu9fIb5i5GHP8JrFv-95" style="edgeStyle=orthogonalEdgeStyle;rounded=0;orthogonalLoop=1;jettySize=auto;html=1;exitX=1;exitY=0.5;exitDx=0;exitDy=0;entryX=0;entryY=0.25;entryDx=0;entryDy=0;endArrow=none;endFill=0;fillColor=#dae8fc;strokeColor=#6c8ebf;" edge="1" parent="1" source="TtnDu9fIb5i5GHP8JrFv-87" target="TtnDu9fIb5i5GHP8JrFv-93">
          <mxGeometry relative="1" as="geometry" />
        </mxCell>
        <mxCell id="TtnDu9fIb5i5GHP8JrFv-87" value="access" style="rhombus;whiteSpace=wrap;html=1;fillColor=#dae8fc;strokeColor=#6c8ebf;" vertex="1" parent="1">
          <mxGeometry x="608" y="425" width="80" height="80" as="geometry" />
        </mxCell>
        <mxCell id="TtnDu9fIb5i5GHP8JrFv-94" style="edgeStyle=orthogonalEdgeStyle;rounded=0;orthogonalLoop=1;jettySize=auto;html=1;exitX=1;exitY=0.5;exitDx=0;exitDy=0;entryX=0;entryY=0.75;entryDx=0;entryDy=0;endArrow=none;endFill=0;fillColor=#dae8fc;strokeColor=#6c8ebf;" edge="1" parent="1" source="TtnDu9fIb5i5GHP8JrFv-91" target="TtnDu9fIb5i5GHP8JrFv-93">
          <mxGeometry relative="1" as="geometry" />
        </mxCell>
        <mxCell id="TtnDu9fIb5i5GHP8JrFv-91" value="access" style="rhombus;whiteSpace=wrap;html=1;fillColor=#dae8fc;strokeColor=#6c8ebf;" vertex="1" parent="1">
          <mxGeometry x="608" y="530" width="80" height="80" as="geometry" />
        </mxCell>
        <mxCell id="TtnDu9fIb5i5GHP8JrFv-107" style="edgeStyle=orthogonalEdgeStyle;rounded=0;orthogonalLoop=1;jettySize=auto;html=1;exitX=1;exitY=0.5;exitDx=0;exitDy=0;entryX=0;entryY=0.5;entryDx=0;entryDy=0;endArrow=none;endFill=0;fillColor=#dae8fc;strokeColor=#6c8ebf;" edge="1" parent="1" source="TtnDu9fIb5i5GHP8JrFv-93" target="TtnDu9fIb5i5GHP8JrFv-105">
          <mxGeometry relative="1" as="geometry" />
        </mxCell>
        <mxCell id="TtnDu9fIb5i5GHP8JrFv-93" value="INTERACTIVE MAP" style="rounded=0;whiteSpace=wrap;html=1;fillColor=#dae8fc;strokeColor=#6c8ebf;" vertex="1" parent="1">
          <mxGeometry x="818" y="490" width="120" height="60" as="geometry" />
        </mxCell>
        <mxCell id="TtnDu9fIb5i5GHP8JrFv-103" style="edgeStyle=orthogonalEdgeStyle;rounded=0;orthogonalLoop=1;jettySize=auto;html=1;exitX=0.5;exitY=1;exitDx=0;exitDy=0;entryX=0.25;entryY=0;entryDx=0;entryDy=0;endArrow=none;endFill=0;fillColor=#dae8fc;strokeColor=#6c8ebf;" edge="1" parent="1" source="TtnDu9fIb5i5GHP8JrFv-96" target="TtnDu9fIb5i5GHP8JrFv-101">
          <mxGeometry relative="1" as="geometry" />
        </mxCell>
        <mxCell id="TtnDu9fIb5i5GHP8JrFv-96" value="ID" style="ellipse;whiteSpace=wrap;html=1;fillColor=#dae8fc;strokeColor=#6c8ebf;" vertex="1" parent="1">
          <mxGeometry x="1068" y="335" width="120" height="80" as="geometry" />
        </mxCell>
        <mxCell id="TtnDu9fIb5i5GHP8JrFv-102" style="edgeStyle=orthogonalEdgeStyle;rounded=0;orthogonalLoop=1;jettySize=auto;html=1;exitX=0.5;exitY=1;exitDx=0;exitDy=0;entryX=0.5;entryY=0;entryDx=0;entryDy=0;endArrow=none;endFill=0;fillColor=#dae8fc;strokeColor=#6c8ebf;" edge="1" parent="1" source="TtnDu9fIb5i5GHP8JrFv-97" target="TtnDu9fIb5i5GHP8JrFv-93">
          <mxGeometry relative="1" as="geometry" />
        </mxCell>
        <mxCell id="TtnDu9fIb5i5GHP8JrFv-97" value="index" style="ellipse;whiteSpace=wrap;html=1;fillColor=#dae8fc;strokeColor=#6c8ebf;" vertex="1" parent="1">
          <mxGeometry x="818" y="310" width="120" height="80" as="geometry" />
        </mxCell>
        <mxCell id="TtnDu9fIb5i5GHP8JrFv-104" style="edgeStyle=orthogonalEdgeStyle;rounded=0;orthogonalLoop=1;jettySize=auto;html=1;exitX=0.5;exitY=1;exitDx=0;exitDy=0;entryX=0.75;entryY=0;entryDx=0;entryDy=0;endArrow=none;endFill=0;fillColor=#dae8fc;strokeColor=#6c8ebf;" edge="1" parent="1" source="TtnDu9fIb5i5GHP8JrFv-98" target="TtnDu9fIb5i5GHP8JrFv-101">
          <mxGeometry relative="1" as="geometry" />
        </mxCell>
        <mxCell id="TtnDu9fIb5i5GHP8JrFv-98" value="name" style="ellipse;whiteSpace=wrap;html=1;fillColor=#dae8fc;strokeColor=#6c8ebf;" vertex="1" parent="1">
          <mxGeometry x="1348" y="335" width="120" height="80" as="geometry" />
        </mxCell>
        <mxCell id="TtnDu9fIb5i5GHP8JrFv-115" style="rounded=0;orthogonalLoop=1;jettySize=auto;html=1;exitX=0.5;exitY=1;exitDx=0;exitDy=0;entryX=0.5;entryY=0;entryDx=0;entryDy=0;startArrow=none;startFill=0;endArrow=none;endFill=0;fillColor=#dae8fc;strokeColor=#6c8ebf;" edge="1" parent="1" source="TtnDu9fIb5i5GHP8JrFv-99" target="TtnDu9fIb5i5GHP8JrFv-109">
          <mxGeometry relative="1" as="geometry" />
        </mxCell>
        <mxCell id="TtnDu9fIb5i5GHP8JrFv-99" value="name" style="ellipse;whiteSpace=wrap;html=1;fillColor=#dae8fc;strokeColor=#6c8ebf;" vertex="1" parent="1">
          <mxGeometry x="658" y="10" width="120" height="80" as="geometry" />
        </mxCell>
        <mxCell id="TtnDu9fIb5i5GHP8JrFv-101" value="LOCATION" style="rounded=0;whiteSpace=wrap;html=1;fillColor=#dae8fc;strokeColor=#6c8ebf;" vertex="1" parent="1">
          <mxGeometry x="1228" y="490" width="120" height="60" as="geometry" />
        </mxCell>
        <mxCell id="TtnDu9fIb5i5GHP8JrFv-106" style="edgeStyle=orthogonalEdgeStyle;rounded=0;orthogonalLoop=1;jettySize=auto;html=1;exitX=1;exitY=0.5;exitDx=0;exitDy=0;entryX=0;entryY=0.5;entryDx=0;entryDy=0;endArrow=none;endFill=0;fillColor=#dae8fc;strokeColor=#6c8ebf;" edge="1" parent="1" source="TtnDu9fIb5i5GHP8JrFv-105" target="TtnDu9fIb5i5GHP8JrFv-101">
          <mxGeometry relative="1" as="geometry" />
        </mxCell>
        <mxCell id="TtnDu9fIb5i5GHP8JrFv-105" value="has a" style="rhombus;whiteSpace=wrap;html=1;fillColor=#dae8fc;strokeColor=#6c8ebf;" vertex="1" parent="1">
          <mxGeometry x="1028" y="480" width="80" height="80" as="geometry" />
        </mxCell>
        <mxCell id="TtnDu9fIb5i5GHP8JrFv-109" value="HAZARDS" style="rounded=0;whiteSpace=wrap;html=1;fillColor=#dae8fc;strokeColor=#6c8ebf;" vertex="1" parent="1">
          <mxGeometry x="628" y="170" width="120" height="60" as="geometry" />
        </mxCell>
        <mxCell id="TtnDu9fIb5i5GHP8JrFv-113" value="" style="edgeStyle=orthogonalEdgeStyle;rounded=0;orthogonalLoop=1;jettySize=auto;html=1;endArrow=none;endFill=0;fillColor=#dae8fc;strokeColor=#6c8ebf;" edge="1" parent="1" source="TtnDu9fIb5i5GHP8JrFv-110" target="TtnDu9fIb5i5GHP8JrFv-109">
          <mxGeometry relative="1" as="geometry" />
        </mxCell>
        <mxCell id="TtnDu9fIb5i5GHP8JrFv-117" style="rounded=0;orthogonalLoop=1;jettySize=auto;html=1;exitX=0.5;exitY=1;exitDx=0;exitDy=0;entryX=0.25;entryY=0;entryDx=0;entryDy=0;endArrow=none;endFill=0;fillColor=#dae8fc;strokeColor=#6c8ebf;" edge="1" parent="1" source="TtnDu9fIb5i5GHP8JrFv-110" target="TtnDu9fIb5i5GHP8JrFv-93">
          <mxGeometry relative="1" as="geometry" />
        </mxCell>
        <mxCell id="TtnDu9fIb5i5GHP8JrFv-110" value="access" style="rhombus;whiteSpace=wrap;html=1;fillColor=#dae8fc;strokeColor=#6c8ebf;" vertex="1" parent="1">
          <mxGeometry x="648" y="280" width="80" height="80" as="geometry" />
        </mxCell>
        <mxCell id="TtnDu9fIb5i5GHP8JrFv-114" style="rounded=0;orthogonalLoop=1;jettySize=auto;html=1;exitX=0.5;exitY=1;exitDx=0;exitDy=0;entryX=0.25;entryY=0;entryDx=0;entryDy=0;startArrow=none;startFill=0;endArrow=none;endFill=0;fillColor=#dae8fc;strokeColor=#6c8ebf;" edge="1" parent="1" source="TtnDu9fIb5i5GHP8JrFv-111" target="TtnDu9fIb5i5GHP8JrFv-109">
          <mxGeometry relative="1" as="geometry" />
        </mxCell>
        <mxCell id="TtnDu9fIb5i5GHP8JrFv-111" value="id" style="ellipse;whiteSpace=wrap;html=1;fillColor=#dae8fc;strokeColor=#6c8ebf;" vertex="1" parent="1">
          <mxGeometry x="508" y="10" width="120" height="80" as="geometry" />
        </mxCell>
        <mxCell id="TtnDu9fIb5i5GHP8JrFv-112" value="status" style="ellipse;whiteSpace=wrap;html=1;fillColor=#dae8fc;strokeColor=#6c8ebf;" vertex="1" parent="1">
          <mxGeometry x="788" y="10" width="120" height="80" as="geometry" />
        </mxCell>
        <mxCell id="TtnDu9fIb5i5GHP8JrFv-116" style="rounded=0;orthogonalLoop=1;jettySize=auto;html=1;exitX=0.5;exitY=1;exitDx=0;exitDy=0;entryX=0.869;entryY=0.012;entryDx=0;entryDy=0;entryPerimeter=0;startArrow=none;startFill=0;endArrow=none;endFill=0;fillColor=#dae8fc;strokeColor=#6c8ebf;" edge="1" parent="1" source="TtnDu9fIb5i5GHP8JrFv-112" target="TtnDu9fIb5i5GHP8JrFv-109">
          <mxGeometry relative="1" as="geometry" />
        </mxCell>
      </root>
    </mxGraphModel>
  </diagram>
</mxfile>
